<?xml version="1.0" encoding="utf-8"?>
<!-- Generator: Adobe Illustrator 18.1.1, SVG Export Plug-In . SVG Version: 6.00 Build 0)  -->
<svg version="1.0" id="Layer_1" xmlns="http://www.w3.org/2000/svg" xmlns:xlink="http://www.w3.org/1999/xlink" x="0px" y="0px"
	 viewBox="0 0 774 683.4" enable-background="new 0 0 774 683.4" xml:space="preserve">
<g>
	<polygon fill="#F6A200" points="118.2,66.9 -0.1,2.5 -0.1,131.3 	"/>
	<polygon fill="#F6A200" points="505.3,276.4 387,211.9 387,340.8 	"/>
	<polygon fill="#01221F" points="268.7,405.3 387,340.8 387,469.7 	"/>
	<polygon fill="#95D600" points="763.3,405.3 645,340.8 645,469.7 	"/>
	<polygon fill="#F6A200" points="763.3,276.4 645,211.9 645,340.8 	"/>
	<polygon fill="#003332" points="526.8,276.4 526.8,405.3 645,340.8 	"/>
	<polygon fill="#95D600" points="376.2,195.8 258,131.3 258,260.2 	"/>
	<polygon fill="#95D600" points="634.3,195.8 516,131.3 516,260.2 	"/>
	<polygon fill="#003332" points="655.8,66.9 655.8,195.8 774.1,131.3 	"/>
	<polygon fill="#F6A200" points="247.2,276.4 129,211.9 129,340.8 	"/>
	<polygon fill="#01221F" points="10.7,405.3 129,340.8 129,469.7 	"/>
	<polygon fill="#95D600" points="247.2,824.1 129,759.7 129,888.6 	"/>
	<polygon fill="#003332" points="10.7,695.2 10.7,824.1 129,759.7 	"/>
	<polygon fill="#95D600" points="505.3,824.2 387,759.7 387,888.6 	"/>
	<polygon fill="#F6A200" points="505.3,695.3 387,630.8 387,759.7 	"/>
	<polygon fill="#003332" points="268.7,695.3 268.7,824.2 387,759.7 	"/>
	<polygon fill="#95D600" points="763.3,824.2 645,759.7 645,888.6 	"/>
	<polygon fill="#D7870A" points="526.8,695.3 645,630.9 645,759.7 	"/>
	<polygon fill="#81AF28" points="763.3,695.3 763.3,824.2 645,759.7 	"/>
	<polygon fill="#003332" points="526.8,695.3 526.8,824.2 645,759.7 	"/>
	<polygon fill="#D7870A" points="139.7,485.8 258,421.4 258,550.2 	"/>
	<polygon fill="#01221F" points="139.7,614.7 258,550.2 258,679.1 	"/>
	<polygon fill="#81AF28" points="376.2,485.8 376.2,614.7 258,550.2 	"/>
	<polygon fill="#95D600" points="634.3,614.7 516,550.2 516,679.1 	"/>
	<polygon fill="#F6A200" points="634.3,485.8 516,421.4 516,550.2 	"/>
	<polygon fill="#D7870A" points="397.7,485.8 516,421.4 516,550.2 	"/>
	<polygon fill="#01221F" points="397.7,614.7 516,550.2 516,679.1 	"/>
	<polygon fill="#D7870A" points="655.8,485.8 774.1,421.4 774.1,550.2 	"/>
	<polygon fill="#01221F" points="655.8,614.7 774.1,550.2 774.1,679.1 	"/>
</g>
<g>
</g>
<g>
</g>
<g>
</g>
<g>
</g>
<g>
</g>
<g>
</g>
<g>
</g>
<g>
</g>
<g>
</g>
<g>
</g>
<g>
</g>
<g>
</g>
<g>
</g>
<g>
</g>
<g>
</g>
</svg>
