<?xml version="1.0" encoding="utf-8"?>
<!-- Generator: Adobe Illustrator 18.1.1, SVG Export Plug-In . SVG Version: 6.00 Build 0)  -->
<svg version="1.1" id="Layer_1" xmlns="http://www.w3.org/2000/svg" xmlns:xlink="http://www.w3.org/1999/xlink" x="0px" y="0px"
	 viewBox="0 160.1 595.3 681.8" enable-background="new 0 160.1 595.3 681.8" xml:space="preserve">
<g>
	<polygon fill="#F6A200" points="90.9,209.6 -0.1,160.1 -0.1,259.1 	"/>
	<polygon fill="#F6A200" points="388.6,370.7 297.6,321.1 297.6,420.3 	"/>
	<polygon fill="#01221F" points="206.7,469.9 297.6,420.3 297.6,519.4 	"/>
	<polygon fill="#95D600" points="587.1,469.9 496.1,420.3 496.1,519.4 	"/>
	<polygon fill="#F6A200" points="587.1,370.7 496.1,321.1 496.1,420.3 	"/>
	<polygon fill="#003332" points="405.2,370.7 405.2,469.9 496.1,420.3 	"/>
	<polygon fill="#95D600" points="289.3,308.7 198.4,259.1 198.4,358.3 	"/>
	<polygon fill="#95D600" points="487.8,308.7 396.9,259.1 396.9,358.3 	"/>
	<polygon fill="#003332" points="504.4,209.6 504.4,308.7 595.4,259.1 	"/>
	<polygon fill="#F6A200" points="190.1,370.7 99.2,321.1 99.2,420.3 	"/>
	<polygon fill="#01221F" points="8.2,469.9 99.2,420.3 99.2,519.4 	"/>
	<polygon fill="#95D600" points="190.1,792 99.2,742.4 99.2,841.6 	"/>
	<polygon fill="#003332" points="8.2,692.8 8.2,792 99.2,742.4 	"/>
	<polygon fill="#95D600" points="388.6,792 297.6,742.4 297.6,841.6 	"/>
	<polygon fill="#F6A200" points="388.6,692.9 297.6,643.3 297.6,742.4 	"/>
	<polygon fill="#003332" points="206.7,692.9 206.7,792 297.6,742.4 	"/>
	<polygon fill="#95D600" points="587.1,792 496.1,742.4 496.1,841.6 	"/>
	<polygon fill="#D7870A" points="405.2,692.9 496.1,643.4 496.1,742.4 	"/>
	<polygon fill="#81AF28" points="587.1,692.9 587.1,792 496.1,742.4 	"/>
	<polygon fill="#003332" points="405.2,692.9 405.2,792 496.1,742.4 	"/>
	<polygon fill="#D7870A" points="107.4,531.8 198.4,482.2 198.4,581.3 	"/>
	<polygon fill="#01221F" points="107.4,630.9 198.4,581.3 198.4,680.4 	"/>
	<polygon fill="#81AF28" points="289.3,531.8 289.3,630.9 198.4,581.3 	"/>
	<polygon fill="#95D600" points="487.8,630.9 396.9,581.3 396.9,680.4 	"/>
	<polygon fill="#F6A200" points="487.8,531.8 396.9,482.2 396.9,581.3 	"/>
	<polygon fill="#D7870A" points="305.9,531.8 396.9,482.2 396.9,581.3 	"/>
	<polygon fill="#01221F" points="305.9,630.9 396.9,581.3 396.9,680.4 	"/>
	<polygon fill="#D7870A" points="504.4,531.8 595.4,482.2 595.4,581.3 	"/>
	<polygon fill="#01221F" points="504.4,630.9 595.4,581.3 595.4,680.4 	"/>
</g>
</svg>
