<?xml version="1.0" encoding="utf-8"?>
<!-- Generator: Adobe Illustrator 18.1.1, SVG Export Plug-In . SVG Version: 6.00 Build 0)  -->
<svg version="1.0" id="Layer_1" xmlns="http://www.w3.org/2000/svg" xmlns:xlink="http://www.w3.org/1999/xlink" x="0px" y="0px"
	 viewBox="0 0 292.9 418.2" enable-background="new 0 0 292.9 418.2" xml:space="preserve">
<g>
	<g>
		<path fill="#FFFFFF" d="M34,336.5l-2.8,0.9c-0.9-3-2.5-4.3-4.9-4.3c-3.6,0-5.3,2.4-5.3,7v12.5c0,4.3,1.8,6.4,5.2,6.4
			c2.1,0,3.6-0.8,4.7-3.1v-6.7h-3.5v-2.7h6.7v15.3h-3v-2.4c-1.4,1.9-3.4,2.8-5.8,2.8c-5,0-7.9-3.3-7.9-9.6V340
			c0-6.1,2.8-10.2,8.7-10.2C30.1,329.8,33.1,332.3,34,336.5z"/>
		<path fill="#FFFFFF" d="M40.6,349.6v4.5c0,3.3,1.4,5.1,4.1,5.1c2.1,0,3.3-1.1,4.2-4.2l2.6,0.9c-1,4.2-3.3,6.2-7.1,6.2
			c-4.7,0-7.2-3.3-7.2-7.9v-9.4c0-4.6,2.5-7.9,7.2-7.9c4.6,0,7,3.4,7,8v4.7H40.6z M40.6,347.2h7.7v-2.6c0-3.2-1.4-4.8-3.9-4.8
			c-2.7,0-3.9,1.7-3.9,4.9V347.2z"/>
		<path fill="#FFFFFF" d="M64.6,340.9c-0.6-0.4-1.2-0.5-1.9-0.5c-2.7,0-4.4,2.4-4.7,6.7v14.5h-3.4v-24.3h2.9l0.2,4
			c1.2-3.1,2.9-4.4,5.1-4.4c0.8,0,1.7,0.2,2.3,0.6L64.6,340.9z"/>
		<path fill="#FFFFFF" d="M69.5,349.6v4.5c0,3.3,1.4,5.1,4.1,5.1c2.1,0,3.3-1.1,4.2-4.2l2.6,0.9c-1,4.2-3.3,6.2-7.1,6.2
			c-4.7,0-7.2-3.3-7.2-7.9v-9.4c0-4.6,2.5-7.9,7.2-7.9c4.6,0,7,3.4,7,8v4.7H69.5z M69.5,347.2h7.7v-2.6c0-3.2-1.4-4.8-3.9-4.8
			c-2.7,0-3.9,1.7-3.9,4.9V347.2z"/>
		<path fill="#FFFFFF" d="M86.9,361.7h-3.4v-24.3h3l0.1,2.1c1.3-1.6,3.2-2.6,5.4-2.6c4,0,6.2,2.9,6.2,8v16.7h-3.4V345
			c0-3.4-1.3-5.1-3.8-5.1c-1.9,0-3.3,1-4.2,2.3V361.7z"/>
		<path fill="#FFFFFF" d="M112.6,343.5c-0.7-2.5-2.1-3.6-3.9-3.6c-2.5,0-3.9,1.6-3.9,5v9.2c0,3.4,1.4,5.1,3.9,5.1
			c2,0,3.2-1.1,3.9-3.7l2.6,0.9c-0.9,3.5-3.1,5.7-6.7,5.7c-4.7,0-7.1-3.4-7.1-7.8v-9.5c0-4.5,2.4-7.9,7-7.9c3.3,0,5.7,2.1,6.6,5.5
			L112.6,343.5z"/>
		<path fill="#FFFFFF" d="M121.4,338.3v23.4H118v-23.4H121.4z M121.3,330.3v4.4h-3.2v-4.4H121.3z"/>
		<path fill="#FFFFFF" d="M125.5,342.3c1.3-3.2,3.3-5.4,6.7-5.4c4.3,0,6.2,3,6.2,7.5v13.2c0,1.2,0.5,1.9,1.6,1.9h0.6v2.2
			c-0.5,0.1-1.1,0.3-1.7,0.3c-1.7,0-2.8-0.9-3.4-2.1c-1.3,1.5-3,2.2-5,2.2c-3.4,0-5.6-2.5-5.6-6.5c0-4.6,2.4-7.8,8.7-7.8h1.4v-3.4
			c0-3.2-1.1-4.6-3.1-4.6c-1.8,0-3.1,1.3-4,3.7L125.5,342.3z M135,357.3v-6.9h-1.4c-4,0-5.4,1.8-5.4,5c0,3,1.2,4.1,3,4.1
			C132.9,359.4,134.1,358.7,135,357.3z"/>
		<path fill="#FFFFFF" d="M156.6,361.7h-3.4V345c0-3.8-1.3-5-3.2-5c-1.7,0-3.1,1.3-3.7,3.1v18.6h-3.4v-24.3h3v2.5c1.3-2,3-2.9,5-2.9
			c2.2,0,3.9,1,4.8,3.4c1.1-2.1,3-3.4,5.3-3.4c3.7,0,5.9,2.5,5.9,8v16.7h-3.4V345c0-3.3-1.1-5-3.3-5c-2.1,0-3.6,1.4-3.6,5V361.7z"/>
		<path fill="#FFFFFF" d="M173.5,349.6v4.5c0,3.3,1.4,5.1,4.1,5.1c2.1,0,3.3-1.1,4.2-4.2l2.6,0.9c-1,4.2-3.3,6.2-7.1,6.2
			c-4.7,0-7.2-3.3-7.2-7.9v-9.4c0-4.6,2.5-7.9,7.2-7.9c4.6,0,7,3.4,7,8v4.7H173.5z M173.5,347.2h7.7v-2.6c0-3.2-1.4-4.8-3.9-4.8
			c-2.7,0-3.9,1.7-3.9,4.9V347.2z"/>
		<path fill="#FFFFFF" d="M190.9,361.7h-3.4v-24.3h3l0.1,2.1c1.3-1.6,3.2-2.6,5.4-2.6c4,0,6.2,2.9,6.2,8v16.7h-3.4V345
			c0-3.4-1.3-5.1-3.8-5.1c-1.9,0-3.3,1-4.2,2.3V361.7z"/>
		<path fill="#FFFFFF" d="M215.3,341.2h-4.9v14.9c0,2.3,1,3.2,2.6,3.2c0.7,0,1.3-0.2,1.9-0.5l0.4,2.2c-0.9,0.6-2,1.1-3.5,1.1
			c-3.3,0-4.9-2.1-4.9-6.1v-14.7l-2.6-0.6v-2.4l2.8-0.2l0.8-5.4h2.5v5.6h4.9V341.2z"/>
		<path fill="#FFFFFF" d="M232.3,354.3c0,4.6-2.6,7.8-7.5,7.8c-4.8,0-7.4-3.1-7.4-7.8v-9.5c0-4.6,2.6-7.9,7.4-7.9
			c4.9,0,7.5,3.2,7.5,7.9V354.3z M220.9,354.2c0,3.2,1.3,5,3.9,5c2.7,0,4-1.8,4-5v-9.3c0-3.2-1.3-5.1-4-5.1c-2.7,0-3.9,1.8-3.9,5.1
			V354.2z"/>
		<path fill="#FFFFFF" d="M254.2,339.2v-8.9h3.4v31.5h-3l-0.2-2.1c-1.3,1.6-3.2,2.5-5.4,2.5c-3.9,0-6.2-2.9-6.2-8V345
			c0-5.1,2.2-8,6.3-8C251.2,337,252.9,337.8,254.2,339.2z M254.2,342.2c-0.9-1.3-2.2-2.2-4.1-2.2c-2.6,0-3.8,1.7-3.8,5.1v9
			c0,3.3,1.3,5.1,3.8,5.1c1.9,0,3.3-1,4.2-2.2V342.2z"/>
		<path fill="#FFFFFF" d="M264.7,349.6v4.5c0,3.3,1.4,5.1,4.1,5.1c2.1,0,3.3-1.1,4.2-4.2l2.6,0.9c-1,4.2-3.3,6.2-7.1,6.2
			c-4.7,0-7.2-3.3-7.2-7.9v-9.4c0-4.6,2.5-7.9,7.2-7.9c4.6,0,7,3.4,7,8v4.7H264.7z M264.7,347.2h7.7v-2.6c0-3.2-1.4-4.8-3.9-4.8
			c-2.7,0-3.9,1.7-3.9,4.9V347.2z"/>
		<path fill="#FFFFFF" d="M32.1,370.1v3.3H21.8v10.4H30v3h-8.2v11.5h10.8v3.3H18.1v-31.5H32.1z"/>
		<path fill="#FFFFFF" d="M50,401.5h-3.4v-16.7c0-3.8-1.3-5-3.2-5c-1.7,0-3.1,1.3-3.7,3.1v18.6h-3.4v-24.3h3v2.5c1.3-2,3-2.9,5-2.9
			c2.2,0,3.9,1,4.8,3.4c1.1-2.1,3-3.4,5.3-3.4c3.7,0,5.9,2.5,5.9,8v16.7h-3.4v-16.7c0-3.3-1.1-5-3.3-5c-2.1,0-3.6,1.4-3.6,5V401.5z"
			/>
		<path fill="#FFFFFF" d="M68.5,399.7v6.9h-3.4v-29.5h3l0.2,2.1c1.3-1.6,3.1-2.5,5.4-2.5c4,0,6.2,3,6.2,8v9.1c0,5.1-2.3,8-6.3,8
			C71.5,401.9,69.8,401.2,68.5,399.7z M68.5,396.8c0.9,1.2,2.2,2.2,4.1,2.2c2.6,0,3.8-1.7,3.8-5.1v-9c0-3.4-1.2-5.1-3.8-5.1
			c-1.9,0-3.4,1.1-4.2,2.3V396.8z"/>
		<path fill="#FFFFFF" d="M94.4,380.7c-0.6-0.4-1.2-0.5-1.9-0.5c-2.7,0-4.4,2.4-4.7,6.7v14.5h-3.4v-24.3h2.9l0.2,4
			c1.2-3.1,2.9-4.4,5.1-4.4c0.8,0,1.7,0.2,2.3,0.6L94.4,380.7z"/>
		<path fill="#FFFFFF" d="M100.1,389.4v4.5c0,3.3,1.4,5.1,4.1,5.1c2.1,0,3.3-1.1,4.2-4.2l2.6,0.9c-1,4.2-3.3,6.2-7.1,6.2
			c-4.7,0-7.2-3.3-7.2-7.9v-9.4c0-4.6,2.5-7.9,7.2-7.9c4.6,0,7,3.4,7,8v4.7H100.1z M100.1,387h7.7v-2.6c0-3.2-1.4-4.8-3.9-4.8
			c-2.7,0-3.9,1.7-3.9,4.9V387z"/>
		<path fill="#FFFFFF" d="M117.8,389.4v4.5c0,3.3,1.4,5.1,4.1,5.1c2.1,0,3.3-1.1,4.2-4.2l2.6,0.9c-1,4.2-3.3,6.2-7.1,6.2
			c-4.7,0-7.2-3.3-7.2-7.9v-9.4c0-4.6,2.5-7.9,7.2-7.9c4.6,0,7,3.4,7,8v4.7H117.8z M117.8,387h7.7v-2.6c0-3.2-1.4-4.8-3.9-4.8
			c-2.7,0-3.9,1.7-3.9,4.9V387z"/>
		<path fill="#FFFFFF" d="M136.2,401.5h-3.4v-24.3h3l0.1,2.1c1.3-1.6,3.2-2.6,5.4-2.6c4,0,6.2,2.9,6.2,8v16.7h-3.4v-16.7
			c0-3.4-1.3-5.1-3.8-5.1c-1.9,0-3.3,1-4.2,2.3V401.5z"/>
		<path fill="#FFFFFF" d="M163,379v-8.9h3.4v31.5h-3l-0.2-2.1c-1.3,1.6-3.2,2.5-5.4,2.5c-3.9,0-6.2-2.9-6.2-8v-9.1
			c0-5.1,2.2-8,6.3-8C160,376.8,161.7,377.6,163,379z M163,382c-0.9-1.3-2.2-2.2-4.1-2.2c-2.6,0-3.8,1.7-3.8,5.1v9
			c0,3.3,1.3,5.1,3.8,5.1c1.9,0,3.3-1,4.2-2.2V382z"/>
		<path fill="#FFFFFF" d="M175.4,378.1v23.4H172v-23.4H175.4z M175.3,370.1v4.4h-3.2v-4.4H175.3z"/>
		<path fill="#FFFFFF" d="M194.7,401.5h-3.4v-16.7c0-3.8-1.3-5-3.2-5c-1.7,0-3.1,1.3-3.7,3.1v18.6h-3.4v-24.3h3v2.5
			c1.3-2,3-2.9,5-2.9c2.2,0,3.9,1,4.8,3.4c1.1-2.1,3-3.4,5.3-3.4c3.7,0,5.9,2.5,5.9,8v16.7h-3.4v-16.7c0-3.3-1.1-5-3.3-5
			c-2.1,0-3.6,1.4-3.6,5V401.5z"/>
		<path fill="#FFFFFF" d="M212.5,389.4v4.5c0,3.3,1.4,5.1,4.1,5.1c2.1,0,3.3-1.1,4.2-4.2l2.6,0.9c-1,4.2-3.3,6.2-7.1,6.2
			c-4.7,0-7.2-3.3-7.2-7.9v-9.4c0-4.6,2.5-7.9,7.2-7.9c4.6,0,7,3.4,7,8v4.7H212.5z M212.5,387h7.7v-2.6c0-3.2-1.4-4.8-3.9-4.8
			c-2.7,0-3.9,1.7-3.9,4.9V387z"/>
		<path fill="#FFFFFF" d="M230.8,401.5h-3.4v-24.3h3l0.1,2.1c1.3-1.6,3.2-2.6,5.4-2.6c4,0,6.2,2.9,6.2,8v16.7h-3.4v-16.7
			c0-3.4-1.3-5.1-3.8-5.1c-1.9,0-3.3,1-4.2,2.3V401.5z"/>
		<path fill="#FFFFFF" d="M256.1,381h-4.9v14.9c0,2.3,1,3.2,2.6,3.2c0.7,0,1.3-0.2,1.9-0.5l0.4,2.2c-0.9,0.6-2,1.1-3.5,1.1
			c-3.3,0-4.9-2.1-4.9-6.1v-14.7l-2.6-0.6v-2.4l2.8-0.2l0.8-5.4h2.5v5.6h4.9V381z"/>
		<path fill="#FFFFFF" d="M274.1,394.1c0,4.6-2.6,7.8-7.5,7.8c-4.8,0-7.4-3.1-7.4-7.8v-9.5c0-4.6,2.6-7.9,7.4-7.9
			c4.9,0,7.5,3.2,7.5,7.9V394.1z M262.7,394c0,3.2,1.3,5,3.9,5c2.7,0,4-1.8,4-5v-9.3c0-3.2-1.3-5.1-4-5.1c-2.7,0-3.9,1.8-3.9,5.1
			V394z"/>
	</g>
	<g>
		<polygon fill="#F6A200" points="36.8,71.2 146.5,130.9 256.1,71.2 146.5,11.5 		"/>
		<polygon fill="#FFFFFF" points="141.8,174.8 141.8,138.8 36.8,81.6 36.8,261.9 141.8,319.1 141.8,283 71.8,244.9 71.8,208.8 
			141.8,246.9 141.8,210.9 71.8,172.8 71.8,136.7 		"/>
		<path fill="#95D600" d="M256.1,81.6l-105,57.2v36l65-35.4l-29.9,52.3l-35.1,19.1v36l52.5-28.6c9.7-5.3,17.5-1.5,17.5,8.5
			c0,10-7.8,22.3-17.5,27.6L151.1,283v36l52.5-28.6c29-15.8,52.5-52.8,52.5-82.7v0c0-22.8-13.7-34.8-33.1-32.2l33.1-57.9V81.6z"/>
	</g>
</g>
<g>
</g>
<g>
</g>
<g>
</g>
<g>
</g>
<g>
</g>
<g>
</g>
<g>
</g>
<g>
</g>
<g>
</g>
<g>
</g>
<g>
</g>
<g>
</g>
<g>
</g>
<g>
</g>
<g>
</g>
</svg>
