<?xml version="1.0" encoding="utf-8"?>
<!-- Generator: Adobe Illustrator 19.1.0, SVG Export Plug-In . SVG Version: 6.00 Build 0)  -->
<svg version="1.1" id="Layer_1" xmlns="http://www.w3.org/2000/svg" xmlns:xlink="http://www.w3.org/1999/xlink" x="0px" y="0px"
	 viewBox="-784 1211.2 150 150" style="enable-background:new -784 1211.2 150 150;" xml:space="preserve">
<style type="text/css">
	.st0{fill:#454545;}
</style>
<g>
	<path class="st0" d="M-709,1211.2c-41.4,0-75,33.6-75,75s33.6,75,75,75s75-33.6,75-75S-667.6,1211.2-709,1211.2z M-709,1354.5
		c-37.7,0-68.3-30.6-68.3-68.3c0-37.7,30.6-68.3,68.3-68.3s68.3,30.6,68.3,68.3S-671.3,1354.5-709,1354.5z"/>
	<g>
		<path class="st0" d="M-665.2,1326.4c5.7,0-2.3,0,3.2,0c0,1.5,0,2.9,0,4.4c-39.6,0-54.1,0-93.8,0c0-1.4,0-2.8,0-4.4
			c5.4,0-0.7,0,5,0c0-22.9,0-45.5,0-68.3c10.9,0,21.5,0,32.4,0c0-5.6,0-11,0-16.6c17.8,0,35.4,0,53.2,0
			C-665.2,1269.9-665.2,1298-665.2,1326.4z M-670,1326.3c0-26.8,0-53.4,0-80.1c-14.6,0-29.2,0-43.6,0c0,26.8,0,53.4,0,80.1
			C-699,1326.3-684.6,1326.3-670,1326.3z M-718.5,1262.8c-9.3,0-18.4,0-27.6,0c0,21.2,0,42.3,0,63.5c9.3,0,18.4,0,27.6,0
			C-718.5,1305.1-718.5,1284.1-718.5,1262.8z"/>
		<path class="st0" d="M-706,1272c3.8,0,7.4,0,11.2,0c0,3.8,0,7.5,0,11.3c-3.7,0-7.4,0-11.2,0C-706,1279.6-706,1275.9-706,1272z"/>
		<path class="st0" d="M-677.6,1283.4c-3.8,0-7.4,0-11.1,0c0-3.8,0-7.5,0-11.3c3.7,0,7.3,0,11.1,0
			C-677.6,1275.8-677.6,1279.5-677.6,1283.4z"/>
		<path class="st0" d="M-706,1289.6c3.8,0,7.4,0,11.2,0c0,3.8,0,7.5,0,11.3c-3.7,0-7.4,0-11.2,0C-706,1297.2-706,1293.4-706,1289.6z
			"/>
		<path class="st0" d="M-688.8,1289.6c3.8,0,7.4,0,11.1,0c0,3.8,0,7.5,0,11.3c-3.7,0-7.3,0-11.1,0
			C-688.8,1297.1-688.8,1293.4-688.8,1289.6z"/>
		<path class="st0" d="M-694.8,1254.5c0,3.8,0,7.4,0,11.1c-3.8,0-7.4,0-11.3,0c0-3.6,0-7.3,0-11.1
			C-702.4,1254.5-698.7,1254.5-694.8,1254.5z"/>
		<path class="st0" d="M-688.9,1265.7c0-3.8,0-7.4,0-11.2c3.7,0,7.4,0,11.2,0c0,3.6,0,7.4,0,11.2
			C-681.3,1265.7-685,1265.7-688.9,1265.7z"/>
		<path class="st0" d="M-694.8,1307.3c0,3.7,0,7.4,0,11.2c-3.8,0-7.4,0-11.2,0c0-3.7,0-7.4,0-11.2
			C-702.4,1307.3-698.6,1307.3-694.8,1307.3z"/>
		<path class="st0" d="M-677.6,1318.5c-3.8,0-7.4,0-11.2,0c0-3.7,0-7.4,0-11.2c3.6,0,7.4,0,11.2,0
			C-677.6,1311-677.6,1314.6-677.6,1318.5z"/>
		<path class="st0" d="M-726.6,1272c0,3.9,0,7.6,0,11.3c-3.8,0-7.4,0-11.2,0c0-3.8,0-7.5,0-11.3C-734,1272-730.4,1272-726.6,1272z"
			/>
		<path class="st0" d="M-737.8,1289.6c3.8,0,7.4,0,11.1,0c0,3.8,0,7.5,0,11.3c-3.7,0-7.3,0-11.1,0
			C-737.8,1297.1-737.8,1293.4-737.8,1289.6z"/>
		<path class="st0" d="M-737.8,1318.4c0-3.8,0-7.4,0-11.2c3.7,0,7.4,0,11.2,0c0,3.7,0,7.3,0,11.2
			C-730.3,1318.4-734,1318.4-737.8,1318.4z"/>
	</g>
</g>
</svg>
