<?xml version="1.0" encoding="utf-8"?>
<!-- Generator: Adobe Illustrator 19.1.0, SVG Export Plug-In . SVG Version: 6.00 Build 0)  -->
<svg version="1.1" id="Layer_1" xmlns="http://www.w3.org/2000/svg" xmlns:xlink="http://www.w3.org/1999/xlink" x="0px" y="0px"
	 viewBox="-784 1211.2 150 150" style="enable-background:new -784 1211.2 150 150;" xml:space="preserve">
<style type="text/css">
	.st0{fill:#454545;}
</style>
<g>
	<path class="st0" d="M-709,1211.2c-41.4,0-75,33.6-75,75s33.6,75,75,75s75-33.6,75-75S-667.6,1211.2-709,1211.2z M-709,1354.5
		c-37.7,0-68.3-30.6-68.3-68.3c0-37.7,30.6-68.3,68.3-68.3s68.3,30.6,68.3,68.3C-640.7,1323.9-671.3,1354.5-709,1354.5z"/>
	<g>
		<path class="st0" d="M-723.9,1243.6c0.4-1.4,0.6-2.6,1.2-3.6c0.9-1.6,2.5-2.1,4.2-2.1c0.9,0,1.3-0.3,1.7-1.1
			c1.7-3.1,4.3-4.8,7.9-4.8s6.1,1.8,7.8,4.9c0.2,0.4,0.6,0.8,1,0.9c4.5,0.6,5,1.1,5.8,5.6c0.5,0,1.1,0.1,1.6,0.1c4.9,0,9.7,0,14.6,0
			c3.9,0,5.4,1.5,5.4,5.4c0,26.1,0,52.1,0,78.2c0,3.6-1.5,5.2-5.2,5.2c-20.7,0-41.5,0-62.2,0c-3.1,0-5.3-1.7-5.3-5.3
			c0.1-26.1,0-52.1,0-78.2c0-3.8,1.5-5.3,5.4-5.3c4.9,0,9.7,0,14.6,0C-724.8,1243.6-724.3,1243.6-723.9,1243.6z M-739.5,1249.6
			c0,25.7,0,51.2,0,76.8c20.4,0,40.6,0,61.1,0c0-0.7,0-1.3,0-1.9c0-11.1,0-22.2,0-33.3c0-13.3,0-26.6,0-40c0-1.5-0.4-1.8-1.8-1.8
			c-4.2,0.1-8.4,0-12.5,0c-0.5,0-1,0.1-1.6,0.1c0,0.5-0.1,0.8-0.1,1.2c-0.1,2.6-1.7,4.5-4.3,4.5c-6.8,0.1-13.5,0.1-20.3,0
			c-2.5,0-4.2-1.8-4.4-4.3c0-0.4-0.1-0.9-0.1-1.3C-728.9,1249.6-734.1,1249.6-739.5,1249.6z M-717.8,1249.3c5.9,0,11.8,0,17.7,0
			c0-1.9,0-3.7,0-5.7c-2,0-4,0-6.1,0c0-1.1,0-2,0-2.9c0-2-1.2-3.3-2.9-3.3c-1.7,0-2.9,1.3-2.9,3.3c0,0.9,0,1.8,0,2.9
			c-2.1,0-4,0-5.8,0C-717.8,1245.6-717.8,1247.4-717.8,1249.3z"/>
		<path class="st0" d="M-726.9,1286.9c3.7,3.7,7.4,7.5,11.2,11.2c8.2-8.2,16.5-16.5,24.7-24.7c1.6,1.7,3.1,3.2,4.4,4.5
			c-9.6,9.6-19.4,19.4-29.1,29.1c-5.1-5.1-10.4-10.4-15.7-15.7C-730.1,1290-728.6,1288.6-726.9,1286.9z"/>
	</g>
</g>
</svg>
