<?xml version="1.0" encoding="utf-8"?>
<!-- Generator: Adobe Illustrator 18.1.1, SVG Export Plug-In . SVG Version: 6.00 Build 0)  -->
<svg version="1.0" id="Layer_1" xmlns="http://www.w3.org/2000/svg" xmlns:xlink="http://www.w3.org/1999/xlink" x="0px" y="0px"
	 viewBox="0 0 700 330" enable-background="new 0 0 700 330" xml:space="preserve">
<g>
	<g>
		<path fill="#FFFFFF" d="M296.2,126.2l-4.5,1.4c-1.5-4.9-4.1-7-8-7c-5.9,0-8.6,3.9-8.6,11.3v20.2c0,7,3,10.4,8.4,10.4
			c3.4,0,5.8-1.3,7.7-5v-10.9h-5.7v-4.4h10.9v24.9h-4.8v-3.9c-2.3,3.1-5.6,4.5-9.5,4.5c-8,0-12.9-5.4-12.9-15.6v-20.3
			c0-9.9,4.5-16.6,14.1-16.6C289.9,115.4,294.8,119.4,296.2,126.2z"/>
		<path fill="#FFFFFF" d="M306.8,147.6v7.3c0,5.4,2.3,8.2,6.6,8.2c3.4,0,5.4-1.8,6.8-6.8l4.2,1.4c-1.6,6.9-5.4,10.1-11.5,10.1
			c-7.7,0-11.7-5.3-11.7-12.7v-15.3c0-7.4,4.1-12.7,11.6-12.7c7.4,0,11.4,5.5,11.4,13v7.6H306.8z M306.8,143.7h12.5v-4.2
			c0-5.2-2.3-7.8-6.3-7.8c-4.3,0-6.3,2.8-6.3,7.9V143.7z"/>
		<path fill="#FFFFFF" d="M345.9,133.5c-0.9-0.6-2-0.9-3.1-0.9c-4.4,0-7.1,3.8-7.7,10.9v23.6h-5.6v-39.5h4.8l0.3,6.5
			c1.9-5.1,4.7-7.1,8.2-7.1c1.3,0,2.7,0.3,3.8,0.9L345.9,133.5z"/>
		<path fill="#FFFFFF" d="M353.7,147.6v7.3c0,5.4,2.3,8.2,6.6,8.2c3.4,0,5.4-1.8,6.8-6.8l4.2,1.4c-1.6,6.9-5.4,10.1-11.5,10.1
			c-7.7,0-11.7-5.3-11.7-12.7v-15.3c0-7.4,4.1-12.7,11.6-12.7c7.4,0,11.4,5.5,11.4,13v7.6H353.7z M353.7,143.7h12.5v-4.2
			c0-5.2-2.3-7.8-6.3-7.8c-4.3,0-6.3,2.8-6.3,7.9V143.7z"/>
		<path fill="#FFFFFF" d="M382,167.2h-5.6v-39.5h4.8l0.2,3.4c2.1-2.7,5.2-4.1,8.8-4.1c6.5,0,10.1,4.7,10.1,13.1v27.1h-5.6v-27
			c0-5.5-2-8.2-6.1-8.2c-3.1,0-5.4,1.6-6.8,3.7V167.2z"/>
		<path fill="#FFFFFF" d="M423.7,137.6c-1.1-4.1-3.4-5.8-6.3-5.8c-4,0-6.3,2.6-6.3,8.1v15c0,5.5,2.3,8.2,6.3,8.2
			c3.2,0,5.2-1.7,6.4-6l4.1,1.4c-1.5,5.7-5.1,9.3-10.9,9.3c-7.7,0-11.5-5.5-11.5-12.7v-15.4c0-7.3,3.9-12.7,11.4-12.7
			c5.4,0,9.2,3.4,10.8,9L423.7,137.6z"/>
		<path fill="#FFFFFF" d="M438,129.3v37.9h-5.5v-37.9H438z M437.8,116.2v7.1h-5.2v-7.1H437.8z"/>
		<path fill="#FFFFFF" d="M444.7,135.8c2-5.2,5.4-8.8,10.9-8.8c7,0,10,4.9,10,12.2v21.4c0,2,0.9,3,2.6,3h0.9v3.6
			c-0.8,0.2-1.8,0.5-2.8,0.5c-2.7,0-4.6-1.4-5.5-3.4c-2.2,2.4-4.9,3.5-8.1,3.5c-5.5,0-9.1-4-9.1-10.6c0-7.4,3.8-12.7,14.1-12.7h2.3
			v-5.5c0-5.2-1.7-7.5-5.1-7.5c-2.9,0-5.1,2.1-6.6,6L444.7,135.8z M460.1,160v-11.2h-2.3c-6.6,0-8.8,3-8.8,8.1c0,4.8,2,6.6,4.9,6.6
			C456.7,163.5,458.5,162.3,460.1,160z"/>
		<path fill="#FFFFFF" d="M495,167.2h-5.5v-27.1c0-6.2-2.2-8-5.2-8c-2.8,0-5,2-6,5v30.2h-5.6v-39.5h4.8v4.1c2-3.2,4.9-4.8,8.1-4.8
			c3.5,0,6.3,1.6,7.8,5.5c1.8-3.4,4.9-5.5,8.7-5.5c5.9,0,9.6,4,9.6,13.1v27.1h-5.6v-27.1c0-5.3-1.7-8-5.4-8c-3.4,0-5.8,2.3-5.8,8
			V167.2z"/>
		<path fill="#FFFFFF" d="M522.5,147.6v7.3c0,5.4,2.3,8.2,6.6,8.2c3.4,0,5.4-1.8,6.8-6.8l4.2,1.4c-1.6,6.9-5.4,10.1-11.5,10.1
			c-7.7,0-11.7-5.3-11.7-12.7v-15.3c0-7.4,4.1-12.7,11.6-12.7c7.4,0,11.4,5.5,11.4,13v7.6H522.5z M522.5,143.7H535v-4.2
			c0-5.2-2.3-7.8-6.3-7.8c-4.3,0-6.3,2.8-6.3,7.9V143.7z"/>
		<path fill="#FFFFFF" d="M550.8,167.2h-5.6v-39.5h4.8l0.2,3.4c2.1-2.7,5.2-4.1,8.8-4.1c6.5,0,10.1,4.7,10.1,13.1v27.1h-5.6v-27
			c0-5.5-2-8.2-6.1-8.2c-3.1,0-5.4,1.6-6.8,3.7V167.2z"/>
		<path fill="#FFFFFF" d="M590.3,133.9h-8V158c0,3.7,1.6,5.2,4.2,5.2c1.2,0,2.2-0.3,3.1-0.8l0.7,3.6c-1.5,1-3.3,1.7-5.7,1.7
			c-5.4,0-8-3.4-8-9.8v-23.8l-4.3-0.9v-3.8l4.6-0.3l1.3-8.8h4v9.1h8V133.9z"/>
		<path fill="#FFFFFF" d="M618,155.2c0,7.4-4.2,12.6-12.1,12.6c-7.8,0-12-5.1-12-12.6v-15.5c0-7.4,4.1-12.7,12-12.7
			c8,0,12.1,5.2,12.1,12.7V155.2z M599.5,155.1c0,5.2,2.1,8.1,6.4,8.1c4.5,0,6.6-2.9,6.6-8.1v-15.2c0-5.2-2.1-8.2-6.6-8.2
			c-4.4,0-6.4,3-6.4,8.2V155.1z"/>
		<path fill="#FFFFFF" d="M653.4,130.6v-14.5h5.6v51h-4.8l-0.3-3.4c-2.1,2.7-5.2,4-8.8,4c-6.4,0-10-4.7-10-13v-14.7
			c0-8.3,3.6-13.1,10.2-13.1C648.6,127.1,651.4,128.3,653.4,130.6z M653.4,135.5c-1.5-2-3.6-3.5-6.7-3.5c-4.1,0-6.2,2.7-6.2,8.2
			v14.6c0,5.3,2,8.2,6.1,8.2c3.1,0,5.4-1.6,6.8-3.6V135.5z"/>
		<path fill="#FFFFFF" d="M670.6,147.6v7.3c0,5.4,2.3,8.2,6.6,8.2c3.4,0,5.4-1.8,6.8-6.8l4.2,1.4c-1.6,6.9-5.4,10.1-11.5,10.1
			c-7.7,0-11.7-5.3-11.7-12.7v-15.3c0-7.4,4.1-12.7,11.6-12.7c7.4,0,11.4,5.5,11.4,13v7.6H670.6z M670.6,143.7h12.5v-4.2
			c0-5.2-2.3-7.8-6.3-7.8c-4.3,0-6.3,2.8-6.3,7.9V143.7z"/>
		<path fill="#FFFFFF" d="M293,180.7v5.4h-16.7v16.8h13.4v4.8h-13.4v18.7h17.6v5.3h-23.5v-51H293z"/>
		<path fill="#FFFFFF" d="M322.2,231.8h-5.5v-27.1c0-6.2-2.2-8.1-5.2-8.1c-2.8,0-5,2-6,5v30.2h-5.6v-39.5h4.8v4.1
			c2-3.2,4.9-4.8,8.1-4.8c3.5,0,6.3,1.6,7.8,5.5c1.8-3.4,4.9-5.5,8.7-5.5c5.9,0,9.6,4,9.6,13.1v27.1h-5.6v-27.1
			c0-5.3-1.7-8.1-5.4-8.1c-3.4,0-5.8,2.3-5.8,8.1V231.8z"/>
		<path fill="#FFFFFF" d="M352.2,228.9v11.3h-5.6v-47.8h4.8l0.3,3.4c2-2.6,5.1-4.1,8.8-4.1c6.5,0,10,4.8,10,13.1v14.7
			c0,8.3-3.7,13.1-10.2,13.1C357.1,232.4,354.3,231.2,352.2,228.9z M352.2,224.1c1.4,2,3.5,3.5,6.7,3.5c4.1,0,6.2-2.8,6.2-8.2v-14.6
			c0-5.6-2-8.3-6.1-8.3c-3.1,0-5.5,1.7-6.8,3.7V224.1z"/>
		<path fill="#FFFFFF" d="M394.2,198.1c-0.9-0.6-2-0.9-3.1-0.9c-4.4,0-7.1,3.8-7.7,10.9v23.6h-5.6v-39.5h4.8l0.3,6.5
			c1.9-5.1,4.7-7.1,8.2-7.1c1.3,0,2.7,0.3,3.8,0.9L394.2,198.1z"/>
		<path fill="#FFFFFF" d="M403.5,212.2v7.3c0,5.4,2.3,8.2,6.6,8.2c3.4,0,5.4-1.8,6.8-6.8l4.2,1.4c-1.6,6.9-5.4,10.1-11.5,10.1
			c-7.7,0-11.7-5.3-11.7-12.7v-15.3c0-7.4,4.1-12.7,11.6-12.7c7.4,0,11.4,5.6,11.4,13v7.6H403.5z M403.5,208.2H416V204
			c0-5.2-2.3-7.8-6.3-7.8c-4.3,0-6.3,2.8-6.3,7.9V208.2z"/>
		<path fill="#FFFFFF" d="M432.2,212.2v7.3c0,5.4,2.3,8.2,6.6,8.2c3.4,0,5.4-1.8,6.8-6.8l4.2,1.4c-1.6,6.9-5.4,10.1-11.5,10.1
			c-7.7,0-11.7-5.3-11.7-12.7v-15.3c0-7.4,4.1-12.7,11.6-12.7c7.4,0,11.4,5.6,11.4,13v7.6H432.2z M432.2,208.2h12.5V204
			c0-5.2-2.3-7.8-6.3-7.8c-4.3,0-6.3,2.8-6.3,7.9V208.2z"/>
		<path fill="#FFFFFF" d="M462,231.8h-5.6v-39.5h4.8l0.2,3.4c2.1-2.7,5.2-4.1,8.8-4.1c6.5,0,10.1,4.7,10.1,13.1v27.1h-5.6v-27
			c0-5.6-2-8.2-6.1-8.2c-3.1,0-5.4,1.6-6.8,3.7V231.8z"/>
		<path fill="#FFFFFF" d="M505.4,195.2v-14.5h5.6v51h-4.8l-0.3-3.4c-2.1,2.7-5.2,4-8.8,4c-6.4,0-10-4.7-10-13v-14.7
			c0-8.3,3.6-13.1,10.2-13.1C500.6,191.7,503.4,192.9,505.4,195.2z M505.4,200.1c-1.5-2-3.6-3.5-6.7-3.5c-4.1,0-6.2,2.7-6.2,8.2
			v14.6c0,5.3,2,8.2,6.1,8.2c3.1,0,5.4-1.6,6.8-3.6V200.1z"/>
		<path fill="#FFFFFF" d="M525.7,193.9v37.9h-5.5v-37.9H525.7z M525.5,180.7v7.1h-5.2v-7.1H525.5z"/>
		<path fill="#FFFFFF" d="M556.9,231.8h-5.5v-27.1c0-6.2-2.2-8.1-5.2-8.1c-2.8,0-5,2-6,5v30.2h-5.6v-39.5h4.8v4.1
			c2-3.2,4.9-4.8,8.1-4.8c3.5,0,6.3,1.6,7.8,5.5c1.8-3.4,4.9-5.5,8.7-5.5c5.9,0,9.6,4,9.6,13.1v27.1h-5.6v-27.1
			c0-5.3-1.7-8.1-5.4-8.1c-3.4,0-5.8,2.3-5.8,8.1V231.8z"/>
		<path fill="#FFFFFF" d="M585.8,212.2v7.3c0,5.4,2.3,8.2,6.6,8.2c3.4,0,5.4-1.8,6.8-6.8l4.2,1.4c-1.6,6.9-5.4,10.1-11.5,10.1
			c-7.7,0-11.7-5.3-11.7-12.7v-15.3c0-7.4,4.1-12.7,11.6-12.7c7.4,0,11.4,5.6,11.4,13v7.6H585.8z M585.8,208.2h12.5V204
			c0-5.2-2.3-7.8-6.3-7.8c-4.3,0-6.3,2.8-6.3,7.9V208.2z"/>
		<path fill="#FFFFFF" d="M615.6,231.8H610v-39.5h4.8l0.2,3.4c2.1-2.7,5.2-4.1,8.8-4.1c6.5,0,10.1,4.7,10.1,13.1v27.1h-5.5v-27
			c0-5.6-2-8.2-6.1-8.2c-3.1,0-5.4,1.6-6.8,3.7V231.8z"/>
		<path fill="#FFFFFF" d="M656.6,198.5h-8v24.2c0,3.7,1.6,5.2,4.2,5.2c1.2,0,2.2-0.3,3.1-0.8l0.7,3.6c-1.5,1-3.3,1.7-5.7,1.7
			c-5.4,0-8-3.4-8-9.8v-23.8l-4.3-0.9v-3.8l4.6-0.3l1.3-8.8h4v9.1h8V198.5z"/>
		<path fill="#FFFFFF" d="M685.8,219.8c0,7.4-4.2,12.6-12.1,12.6c-7.8,0-12-5.1-12-12.6v-15.5c0-7.4,4.1-12.7,12-12.7
			c8,0,12.1,5.2,12.1,12.7V219.8z M667.3,219.7c0,5.2,2.1,8.1,6.4,8.1c4.5,0,6.6-2.9,6.6-8.1v-15.2c0-5.2-2.1-8.2-6.6-8.2
			c-4.4,0-6.4,3-6.4,8.2V219.7z"/>
	</g>
	<g>
		<polygon fill="#F6A200" points="11.8,70.9 121.4,130.7 231,70.9 121.4,11.2 		"/>
		<polygon fill="#FFFFFF" points="116.8,174.6 116.8,138.5 11.8,81.3 11.8,261.6 116.8,318.8 116.8,282.7 46.8,244.6 46.8,208.5 
			116.8,246.7 116.8,210.6 46.8,172.5 46.8,136.4 		"/>
		<path fill="#95D600" d="M231,81.3l-105,57.2v36l65-35.4l-29.9,52.3L126,210.6v36l52.5-28.6c9.7-5.3,17.5-1.5,17.5,8.5
			c0,10-7.8,22.3-17.5,27.6L126,282.7v36l52.5-28.6c29-15.8,52.5-52.8,52.5-82.7v0c0-22.8-13.7-34.8-33.1-32.2l33.1-57.9V81.3z"/>
	</g>
</g>
<g>
</g>
<g>
</g>
<g>
</g>
<g>
</g>
<g>
</g>
<g>
</g>
<g>
</g>
<g>
</g>
<g>
</g>
<g>
</g>
<g>
</g>
<g>
</g>
<g>
</g>
<g>
</g>
<g>
</g>
</svg>
